<?xml version="1.0" encoding="UTF-8" standalone="no"?>
<svg
   xmlns:dc="http://purl.org/dc/elements/1.1/"
   xmlns:cc="http://creativecommons.org/ns#"
   xmlns:rdf="http://www.w3.org/1999/02/22-rdf-syntax-ns#"
   xmlns:svg="http://www.w3.org/2000/svg"
   xmlns="http://www.w3.org/2000/svg"
   xmlns:sodipodi="http://sodipodi.sourceforge.net/DTD/sodipodi-0.dtd"
   xmlns:inkscape="http://www.inkscape.org/namespaces/inkscape"
   width="1792"
   height="1792"
   viewBox="0 0 1792 1792"
   version="1.1"
   id="svg4"
   sodipodi:docname="github-square.svg"
   inkscape:version="0.92.3 (2405546, 2018-03-11)">
  <metadata
     id="metadata10">
    <rdf:RDF>
      <cc:Work
         rdf:about="">
        <dc:format>image/svg+xml</dc:format>
        <dc:type
           rdf:resource="http://purl.org/dc/dcmitype/StillImage" />
      </cc:Work>
    </rdf:RDF>
  </metadata>
  <defs
     id="defs8" />
  <sodipodi:namedview
     pagecolor="#ffffff"
     bordercolor="#666666"
     borderopacity="1"
     objecttolerance="10"
     gridtolerance="10"
     guidetolerance="10"
     inkscape:pageopacity="0"
     inkscape:pageshadow="2"
     inkscape:window-width="1920"
     inkscape:window-height="999"
     id="namedview6"
     showgrid="false"
     inkscape:zoom="0.13169643"
     inkscape:cx="-356.88135"
     inkscape:cy="896.00001"
     inkscape:window-x="0"
     inkscape:window-y="28"
     inkscape:window-maximized="1"
     inkscape:current-layer="svg4" />
  <path
     d="M647 1200q4-6-3-13-9-7-14-2-4 6 3 13 9 7 14 2zm-28-41q-5-7-12-4-6 4 0 12 7 8 12 5 6-4 0-13zm-41-40q2-4-5-8-7-2-8 2-3 5 4 8 8 2 9-2zm21 23q2-1 1.5-4.5t-3.5-5.5q-6-7-10-3t1 11q6 6 11 2zm86 75q2-7-9-11-9-3-13 4-2 7 9 11 9 3 13-4zm42 3q0-8-12-8-10 0-10 8t11 8 11-8zm39-7q-2-7-13-5t-9 9q2 8 12 6t10-10zm642-317q0-212-150-362t-362-150-362 150-150 362q0 167 98 300.5t252 185.5q18 3 26.5-5t8.5-20q0-52-1-95-6 1-15.5 2.5t-35.5 2-48-4-43.5-20-29.5-41.5q-23-59-57-74-2-1-4.5-3.5l-8-8-7-9.5 4-7.5 19.5-3.5q6 0 15 2t30 15.5 33 35.5q16 28 37.5 42t43.5 14 38-3.5 30-9.5q7-47 33-69-49-6-86-18.5t-73-39-55.5-76-19.5-119.5q0-79 53-137-24-62 5-136 19-6 54.5 7.5t60.5 29.5l26 16q58-17 128-17t128 17q11-7 28.5-18t55.5-26 57-9q29 74 5 136 53 58 53 137 0 57-14 100.5t-35.5 70-53.5 44.5-62.5 26-68.5 12q35 31 35 95 0 40-.5 89t-.5 51q0 12 8.5 20t26.5 5q154-52 252-185.5t98-300.5zm256-480v960q0 119-84.5 203.5t-203.5 84.5h-960q-119 0-203.5-84.5t-84.5-203.5v-960q0-119 84.5-203.5t203.5-84.5h960q119 0 203.5 84.5t84.5 203.5z"
     id="path2"
     style="fill:#000000;stroke:none;stroke-opacity:1;stroke-width:10;stroke-miterlimit:4;stroke-dasharray:none" />
</svg>
